HIERARCHY
ROOT hip
{
  OFFSET 0 0 0
  CHANNELS 6 Xposition Yposition Zposition Zrotation Yrotation Xrotation
  JOINT abdomen
  {
    OFFSET 0 20.6881 -0.73152
    CHANNELS 3 Zrotation Xrotation Yrotation
    JOINT chest
    {
      OFFSET 0 11.7043 -0.48768
      CHANNELS 3 Zrotation Xrotation Yrotation
      JOINT neck
      {
        OFFSET 0 22.1894 -2.19456
        CHANNELS 3 Zrotation Xrotation Yrotation
        JOINT head
        {
          OFFSET -0.24384 7.07133 1.2192
          CHANNELS 3 Zrotation Xrotation Yrotation
          JOINT leftEye
          {
            OFFSET 4.14528 8.04674 8.04672
            CHANNELS 3 Zrotation Xrotation Yrotation
            End Site
            {
              OFFSET 1 0 0
            }
          }
          JOINT rightEye
          {
            OFFSET -3.6576 8.04674 8.04672
            CHANNELS 3 Zrotation Xrotation Yrotation
            End Site
            {
              OFFSET 1 0 0
            }
          }
        }
      }
      JOINT rCollar
      {
        OFFSET -2.68224 19.2634 -4.8768
        CHANNELS 3 Zrotation Xrotation Yrotation
        JOINT rShldr
        {
          OFFSET -8.77824 -1.95073 1.46304
          CHANNELS 3 Zrotation Xrotation Yrotation
          JOINT rForeArm
          {
            OFFSET -28.1742 -1.7115 0.48768
            CHANNELS 3 Zrotation Xrotation Yrotation
            JOINT rHand
            {
              OFFSET -22.5879 0.773209 7.07136
              CHANNELS 3 Zrotation Xrotation Yrotation
              JOINT rThumb1
              {
                OFFSET -1.2192 -0.487915 3.41376
                CHANNELS 3 Zrotation Xrotation Yrotation
                JOINT rThumb2
                {
                  OFFSET -3.37035 -0.52449 3.41376
                  CHANNELS 3 Zrotation Xrotation Yrotation
                  End Site
                  {
                    OFFSET -1.78271 -1.18214 1.43049
                  }
                }
              }
              JOINT rIndex1
              {
                OFFSET -7.75947 0.938293 5.60832
                CHANNELS 3 Zrotation Xrotation Yrotation
                JOINT rIndex2
                {
                  OFFSET -2.54057 -0.884171 1.56538
                  CHANNELS 3 Zrotation Xrotation Yrotation
                  End Site
                  {
                    OFFSET -1.62519 -0.234802 1.16502
                  }
                }
              }
              JOINT rMid1
              {
                OFFSET -8.24714 1.18213 3.41376
                CHANNELS 3 Zrotation Xrotation Yrotation
                JOINT rMid2
                {
                  OFFSET -3.10165 -0.590103 1.0647
                  CHANNELS 3 Zrotation Xrotation Yrotation
                  End Site
                  {
                    OFFSET -2.48547 -0.328903 0.83742
                  }
                }
              }
              JOINT rRing1
              {
                OFFSET -8.82822 0.546677 1.51678
                CHANNELS 3 Zrotation Xrotation Yrotation
                JOINT rRing2
                {
                  OFFSET -2.60934 -0.819778 -0.0198488
                  CHANNELS 3 Zrotation Xrotation Yrotation
                  End Site
                  {
                    OFFSET -2.33842 -0.294052 0.168128
                  }
                }
              }
              JOINT rPinky1
              {
                OFFSET -8.27202 -0.0477905 -0.4584
                CHANNELS 3 Zrotation Xrotation Yrotation
                JOINT rPinky2
                {
                  OFFSET -1.82734 -0.647385 -0.700984
                  CHANNELS 3 Zrotation Xrotation Yrotation
                  End Site
                  {
                    OFFSET -1.69225 -0.51767 -0.607171
                  }
                }
              }
            }
          }
        }
      }
      JOINT lCollar
      {
        OFFSET 2.68224 19.2634 -4.8768
        CHANNELS 3 Zrotation Xrotation Yrotation
        JOINT lShldr
        {
          OFFSET 8.77824 -1.95073 1.46304
          CHANNELS 3 Zrotation Xrotation Yrotation
          JOINT lForeArm
          {
            OFFSET 28.1742 -1.7115 0.48768
            CHANNELS 3 Zrotation Xrotation Yrotation
            JOINT lHand
            {
              OFFSET 22.5879 0.773209 7.07136
              CHANNELS 3 Zrotation Xrotation Yrotation
              JOINT lThumb1
              {
                OFFSET 1.2192 -0.487915 3.41376
                CHANNELS 3 Zrotation Xrotation Yrotation
                JOINT lThumb2
                {
                  OFFSET 3.37035 -0.52449 3.41376
                  CHANNELS 3 Zrotation Xrotation Yrotation
                  End Site
                  {
                    OFFSET 1.78271 -1.18214 1.43049
                  }
                }
              }
              JOINT lIndex1
              {
                OFFSET 7.75947 0.938293 5.60832
                CHANNELS 3 Zrotation Xrotation Yrotation
                JOINT lIndex2
                {
                  OFFSET 2.54057 -0.884171 1.56538
                  CHANNELS 3 Zrotation Xrotation Yrotation
                  End Site
                  {
                    OFFSET 1.62519 -0.234802 1.16502
                  }
                }
              }
              JOINT lMid1
              {
                OFFSET 8.24714 1.18213 3.41376
                CHANNELS 3 Zrotation Xrotation Yrotation
                JOINT lMid2
                {
                  OFFSET 3.10165 -0.590103 1.0647
                  CHANNELS 3 Zrotation Xrotation Yrotation
                  End Site
                  {
                    OFFSET 2.48547 -0.328903 0.83742
                  }
                }
              }
              JOINT lRing1
              {
                OFFSET 8.82822 0.546677 1.51678
                CHANNELS 3 Zrotation Xrotation Yrotation
                JOINT lRing2
                {
                  OFFSET 2.60934 -0.819778 -0.0198488
                  CHANNELS 3 Zrotation Xrotation Yrotation
                  End Site
                  {
                    OFFSET 2.33842 -0.294052 0.168128
                  }
                }
              }
              JOINT lPinky1
              {
                OFFSET 8.27202 -0.0477905 -0.4584
                CHANNELS 3 Zrotation Xrotation Yrotation
                JOINT lPinky2
                {
                  OFFSET 1.82734 -0.647385 -0.700984
                  CHANNELS 3 Zrotation Xrotation Yrotation
                  End Site
                  {
                    OFFSET 1.69225 -0.51767 -0.607171
                  }
                }
              }
            }
          }
        }
      }
    }
  }
  JOINT rButtock
  {
    OFFSET -8.77824 4.35084 1.2192
    CHANNELS 3 Zrotation Xrotation Yrotation
    JOINT rThigh
    {
      OFFSET 0 -1.70687 -2.19456
      CHANNELS 3 Zrotation Xrotation Yrotation
      JOINT rShin
      {
        OFFSET 0 -36.8199 0.73152
        CHANNELS 3 Zrotation Xrotation Yrotation
        JOINT rFoot
        {
          OFFSET 0.73152 -45.1104 -5.12064
          CHANNELS 3 Zrotation Xrotation Yrotation
          End Site
          {
            OFFSET -1.1221 -3.69964 12.103
          }
        }
      }
    }
  }
  JOINT lButtock
  {
    OFFSET 8.77824 4.35084 1.2192
    CHANNELS 3 Zrotation Xrotation Yrotation
    JOINT lThigh
    {
      OFFSET 0 -1.70687 -2.19456
      CHANNELS 3 Zrotation Xrotation Yrotation
      JOINT lShin
      {
        OFFSET 0 -36.8199 0.73152
        CHANNELS 3 Zrotation Xrotation Yrotation
        JOINT lFoot
        {
          OFFSET -0.73152 -45.1104 -5.12064
          CHANNELS 3 Zrotation Xrotation Yrotation
          End Site
          {
            OFFSET 1.1221 -3.69964 12.103
          }
        }
      }
    }
  }
}
MOTION
Frames:	4
Frame Time:	0.03333
0.0 0.0 0.0 0.0 0.0 0.0 0.0 0.0 0.0 0.0 0.0 0.0 0.0 0.0 0.0 0.0 0.0 0.0 0.0 0.0 0.0 0.0 0.0 0.0 0.0 0.0 0.0 0.0 0.0 0.0 0.0 0.0 0.0 0.0 0.0 0.0 0.0 0.0 0.0 0.0 0.0 0.0 0.0 0.0 0.0 0.0 0.0 0.0 0.0 0.0 0.0 0.0 0.0 0.0 0.0 0.0 0.0 0.0 0.0 0.0 0.0 0.0 0.0 0.0 0.0 0.0 0.0 0.0 0.0 0.0 0.0 0.0 0.0 0.0 0.0 0.0 0.0 0.0 0.0 0.0 0.0 0.0 0.0 0.0 0.0 0.0 0.0 0.0 0.0 0.0 0.0 0.0 0.0 0.0 0.0 0.0 0.0 0.0 0.0 0.0 0.0 0.0 0.0 0.0 0.0 0.0 0.0 0.0 0.0 0.0 0.0 0.0 0.0 0.0 0.0 0.0 0.0 0.0 0.0 0.0 0.0 0.0 0.0 0.0 0.0 0.0 0.0 0.0 0.0 0.0 0.0 0.0
0.6154 41.9621 0.636 -12.850386 -50.1616 20.035662 2.712162 18.357935 45.637024 -10.993691 -10.066675 -25.957615 6.984379 16.961453 51.322696 -22.926788 -16.523698 -16.170965 -0.000671 -0.0 0.000262 -0.000671 -0.0 0.000262 -152.1371 14.076263 157.566922 -33.747978 -1.061287 7.426848 -5.990971 37.896642 -133.248715 162.345764 -33.596572 140.136809 -165.914517 -3.586979 89.71057 -16.846061 -40.428882 7.541198 -59.780908 42.596342 48.428831 177.010717 -36.766012 108.979057 -94.877577 60.144892 86.105401 -161.951832 -1.392765 142.75688 -99.952918 -69.803206 -118.396215 14.710669 15.885819 -3.322718 20.02855 68.842164 13.073611 -146.651299 6.351158 -141.615008 -0.064226 -0.384616 0.085063 132.82255 -42.707976 -153.098515 0.494144 -63.101774 144.885443 168.736679 4.81469 -141.232434 178.941859 -16.467458 -89.419831 127.838022 16.030285 -63.381073 0.660252 1.064697 -0.376843 -21.02391 -13.707576 1.369127 164.764058 -19.690455 -144.766147 162.730073 -2.966683 -142.768175 145.121155 1.635028 179.642556 153.260993 -20.284008 176.233553 -2.450948 6.772437 -2.240479 -0.744956 -4.304704 1.378571 179.999686 75.749417 0.000288 134.027771 2.32877 -91.382118 -98.367 -4.944744 112.076714 -29.170522 -5.672543 -27.756024 0.002337 -0.000671 -0.000228 115.050093 -52.141938 -44.122704 -111.175612 -41.031895 83.027906 -82.681329 -6.812886 -12.93842
0.9745 42.686600000000006 1.0401 -13.242041 -49.994135 20.676478 4.758651 19.115729 -11.925017 0.765463 -15.648486 32.144517 -2.402145 14.716374 -1.613092 10.476228 -25.701254 42.710886 -0.003163 0.0 -0.004177 0.002489 0.0 0.0015 -150.614266 19.981824 155.785814 85.916224 -79.682429 114.551825 -17.79838 -50.472838 89.263184 -3.458717 14.68925 0.478129 5.239838 -5.224234 -0.570569 -153.256161 -67.655808 124.019827 -3.192022 4.991587 1.89543 15.374746 -6.246283 -1.187639 -15.599915 33.215475 11.445249 175.439819 -56.436952 138.500155 0.004537 1.241723 0.390306 -154.176562 -65.413963 -178.108178 20.396613 69.782395 13.04321 -169.735636 71.674052 -146.16297 156.224031 -8.496488 -162.867409 -163.691076 -40.268028 160.542577 -53.627001 -17.438435 -152.120102 37.647054 43.882767 -17.816922 -1.141896 -1.132024 0.164088 112.289596 1.588625 -102.008662 -0.130724 -0.214693 0.075231 -173.206208 -42.709508 -102.017587 163.481163 -15.555684 -144.379703 178.619725 -45.870561 -141.637057 21.917192 -61.139386 35.425943 151.394878 -4.870212 -175.20935 121.405335 -32.814417 119.263338 -123.071861 85.519634 82.674745 -179.960192 75.749716 -0.028661 133.568701 4.358235 -2.842751 -122.798971 72.621628 62.200555 -103.63457 -65.255482 -11.425311 0.00037 0.000827 6e-06 113.695029 -54.921415 -145.067805 115.415092 -38.092087 -6.715125 -75.48774 48.464726 -30.612884
1.3716000000000002 43.4982 1.4819 -13.115367 -49.907781 20.905461 3.687405 19.315638 4.630444 -2.901756 -15.293544 15.18604 -10.904783 24.229207 -75.650863 39.389541 8.429551 112.98856 0.000397 0.0 0.00035 0.000397 0.0 0.00035 -2.306669 11.91553 2.910748 61.716327 -25.154012 25.609084 -46.980822 3.239663 130.069557 11.905943 -29.36722 5.232271 -167.892321 -5.569266 89.85806 110.600216 -61.193895 80.724317 -157.066382 -27.738957 122.454476 -15.004485 39.985356 6.135413 1.980288 -5.935375 -1.024974 -160.503737 3.555968 142.27445 -145.090149 -2.143747 -178.454416 -136.242831 -62.982288 -158.43091 66.201055 87.845405 -26.215269 -147.098866 7.554568 -141.570244 97.196996 -86.680241 119.403454 90.621978 -43.662909 115.466588 -22.214644 -23.778272 134.807874 159.540502 26.326295 -134.085262 -6.24411 -6.233825 0.625373 98.844095 18.389736 -89.257614 170.072654 -48.440129 -121.195845 -8.926924 10.477186 7.370888 10.560421 25.034037 -7.309763 -34.748263 -64.965881 -10.44321 145.082877 -2.489722 178.344588 152.800643 -21.127128 176.081269 6.755908 -14.9853 6.35549 152.833279 32.452027 147.695273 -179.996793 75.748123 -0.003613 132.989106 4.005768 98.052624 107.557314 -2.892086 88.813416 -100.837396 22.148639 -157.872318 0.014163 -0.00119 0.01339 112.100841 -56.054681 -149.276692 117.69106 -34.096374 26.335504 179.263241 49.63192 81.096383
